<svg xmlns:xlink="http://www.w3.org/1999/xlink" viewBox="0 0 32 32" xmlns="http://www.w3.org/2000/svg" aria-hidden="true" role="presentation" focusable="false" style="display: block; height: 16px; width: 16px; fill: currentcolor;" width="32"  height="32" ><path d="M15 8a4 4 0 1 1-8 0 4 4 0 0 1 8 0zm6 4a4 4 0 1 0 0-8 4 4 0 0 0 0 8zm10 4a4 4 0 1 0-8 0 4 4 0 0 0 8 0zM1 16a4 4 0 1 0 8 0 4 4 0 0 0-8 0zm7.925 11.225l.197.13a4 4 0 0 0 3.145.466L16 26.82l3.733 1.001a4 4 0 0 0 4.303-6.17l-4.768-6.756a4 4 0 0 0-5.398-1.079l-.177.118a4 4 0 0 0-.96.961l-4.77 6.755a4 4 0 0 0 .962 5.575z" fill="#222222"></path></svg>